<?xml version="1.0" encoding="utf-8"?>
<!-- Generator: Adobe Illustrator 23.0.1, SVG Export Plug-In . SVG Version: 6.00 Build 0)  -->
<svg version="1.1" id="Capa_1" xmlns="http://www.w3.org/2000/svg" xmlns:xlink="http://www.w3.org/1999/xlink" x="0px" y="0px"
	 viewBox="0 0 238.1 43" style="enable-background:new 0 0 238.1 43;" xml:space="preserve">
<style type="text/css">
	.st0{fill:#FFFFFF;}
</style>
<g>
	<path class="st0" d="M142.9,32.1c-0.5-0.3-1-0.4-1.7-0.4h-2.4H138h-0.8v10.3h1.7v-4h2.4c0.6,0,1.2-0.1,1.7-0.4
		c0.5-0.3,0.9-0.6,1.1-1.1c0.3-0.5,0.4-1,0.4-1.7s-0.1-1.2-0.4-1.7C143.8,32.8,143.4,32.4,142.9,32.1z M142.5,35.7
		c-0.1,0.2-0.3,0.4-0.5,0.5c-0.2,0.1-0.4,0.2-0.7,0.2h-2.4v-3.1h2.4c0.3,0,0.5,0.1,0.7,0.2c0.2,0.1,0.4,0.3,0.5,0.5
		c0.1,0.2,0.2,0.5,0.2,0.8C142.7,35.2,142.6,35.5,142.5,35.7z"/>
	<path class="st0" d="M153.6,37.4c0.4-0.3,0.8-0.6,1-1.1s0.4-1,0.4-1.6c0-0.6-0.1-1.1-0.4-1.6s-0.6-0.8-1-1.1
		c-0.4-0.3-1-0.4-1.5-0.4h-2.6h-1h-0.7v10.3h1.7v-4.3h1.7l2.3,4.3h2l-2.4-4.4C153.2,37.6,153.4,37.5,153.6,37.4z M149.4,33.3h2.6
		c0.2,0,0.5,0.1,0.6,0.2c0.2,0.1,0.3,0.3,0.4,0.5s0.1,0.5,0.1,0.7c0,0.3-0.1,0.5-0.2,0.7s-0.2,0.4-0.4,0.5c-0.2,0.1-0.4,0.2-0.6,0.2
		h-2.6V33.3z"/>
	<path class="st0" d="M164.1,32.1c-0.6-0.3-1.2-0.5-1.9-0.5s-1.4,0.2-1.9,0.5c-0.6,0.3-1,0.8-1.3,1.3s-0.5,1.2-0.5,2v2.9
		c0,0.8,0.2,1.4,0.5,2s0.7,1,1.3,1.3c0.6,0.3,1.2,0.5,1.9,0.5s1.4-0.2,1.9-0.5s1-0.8,1.3-1.3s0.5-1.2,0.5-2v-2.9
		c0-0.8-0.2-1.4-0.5-2S164.6,32.4,164.1,32.1z M164.1,38.4c0,0.4-0.1,0.8-0.2,1.1s-0.4,0.6-0.7,0.7c-0.3,0.2-0.6,0.3-1,0.3
		s-0.7-0.1-1-0.3c-0.3-0.2-0.5-0.4-0.7-0.7c-0.2-0.3-0.2-0.7-0.2-1.1v-3c0-0.4,0.1-0.8,0.2-1.1c0.2-0.3,0.4-0.6,0.7-0.7
		s0.6-0.3,1-0.3s0.7,0.1,1,0.3c0.3,0.2,0.5,0.4,0.7,0.7s0.2,0.7,0.2,1.1V38.4z"/>
	<polygon class="st0" points="168.1,33.4 171,33.4 171,42.1 172.6,42.1 172.6,33.4 175.5,33.4 175.5,31.7 168.1,31.7 	"/>
	<polygon class="st0" points="178.7,31.7 178,31.7 178,42.1 178.7,42.1 179.7,42.1 184.7,42.1 184.7,40.4 179.7,40.4 179.7,37.7 
		184,37.7 184,36.1 179.7,36.1 179.7,33.4 184.7,33.4 184.7,31.7 179.7,31.7 	"/>
	<path class="st0" d="M189.9,34.3c0.2-0.3,0.4-0.6,0.7-0.8c0.3-0.2,0.6-0.3,1-0.3c0.3,0,0.6,0.1,0.8,0.2c0.3,0.1,0.5,0.3,0.7,0.6
		c0.2,0.2,0.3,0.5,0.4,0.9h1.7c-0.1-0.7-0.4-1.3-0.7-1.8c-0.3-0.5-0.8-0.9-1.3-1.1c-0.5-0.3-1.1-0.4-1.7-0.4c-0.7,0-1.4,0.2-2,0.5
		c-0.6,0.3-1,0.8-1.3,1.3c-0.3,0.6-0.4,1.3-0.4,2.1v2.8c0,0.8,0.1,1.5,0.4,2.1c0.3,0.6,0.7,1,1.3,1.3s0.8,0.5,0.8,0.5s0.4,0,1.1,0
		c0.6,0,1.2-0.1,1.7-0.4c0.5-0.3,0.9-0.6,1.3-1.1s0.6-1.1,0.7-1.8h-1.7c-0.1,0.3-0.2,0.6-0.4,0.9c-0.2,0.2-0.4,0.4-0.7,0.6
		c-0.3,0.1-0.5,0.2-0.8,0.2c-0.4,0-0.7-0.1-1-0.3c-0.3-0.2-0.5-0.4-0.7-0.8s-0.2-0.7-0.2-1.2v-2.8C189.7,35,189.7,34.6,189.9,34.3z"
		/>
	<polygon class="st0" points="197.2,33.4 200,33.4 200,42.1 201.7,42.1 201.7,33.4 204.6,33.4 204.6,31.7 197.2,31.7 	"/>
	<path class="st0" d="M212.5,32.1c-0.6-0.3-1.2-0.5-1.9-0.5s-1.4,0.2-1.9,0.5c-0.6,0.3-1,0.8-1.3,1.3s-0.5,1.2-0.5,2v2.9
		c0,0.8,0.2,1.4,0.5,2s0.7,1,1.3,1.3c0.6,0.3,1.2,0.5,1.9,0.5s1.4-0.2,1.9-0.5s1-0.8,1.3-1.3s0.5-1.2,0.5-2v-2.9
		c0-0.8-0.2-1.4-0.5-2S213,32.4,212.5,32.1z M212.5,38.4c0,0.4-0.1,0.8-0.2,1.1s-0.4,0.6-0.7,0.7c-0.3,0.2-0.6,0.3-1,0.3
		s-0.7-0.1-1-0.3c-0.3-0.2-0.5-0.4-0.7-0.7s-0.2-0.7-0.2-1.1v-3c0-0.4,0.1-0.8,0.2-1.1s0.4-0.6,0.7-0.7s0.6-0.3,1-0.3s0.7,0.1,1,0.3
		c0.3,0.2,0.5,0.4,0.7,0.7s0.2,0.7,0.2,1.1V38.4z"/>
	<path class="st0" d="M223.7,37.4c0.4-0.3,0.8-0.6,1-1.1s0.4-1,0.4-1.6c0-0.6-0.1-1.1-0.4-1.6s-0.6-0.8-1-1.1
		c-0.4-0.3-1-0.4-1.5-0.4h-2.6h-1h-0.7v10.3h1.7v-4.3h1.7l2.3,4.3h2l-2.4-4.4C223.4,37.6,223.6,37.5,223.7,37.4z M219.6,33.3h2.6
		c0.2,0,0.5,0.1,0.6,0.2c0.2,0.1,0.3,0.3,0.4,0.5s0.1,0.5,0.1,0.7c0,0.3-0.1,0.5-0.2,0.7s-0.2,0.4-0.4,0.5s-0.4,0.2-0.6,0.2h-2.6
		V33.3z"/>
	<path class="st0" d="M234.4,36.6c-0.4-0.2-1-0.3-1.6-0.5c0,0,0,0-0.1,0s-0.1,0-0.1,0c0,0,0,0-0.1,0s0,0-0.1,0
		c-0.5-0.1-0.9-0.2-1.2-0.3s-0.5-0.2-0.7-0.4c-0.2-0.2-0.3-0.4-0.3-0.8v0c0-0.4,0.2-0.8,0.5-1c0.4-0.2,0.9-0.4,1.5-0.4
		c0.4,0,0.8,0.1,1.2,0.2c0.4,0.1,0.8,0.4,1.2,0.6l0.8-1.4c-0.3-0.2-0.7-0.4-1-0.6c-0.4-0.2-0.7-0.3-1.1-0.4
		c-0.4-0.1-0.7-0.1-1.1-0.1c-0.8,0-1.5,0.1-2,0.4c-0.6,0.2-1,0.6-1.3,1.1s-0.4,1-0.4,1.7v0c0,0.7,0.2,1.3,0.5,1.7
		c0.3,0.4,0.7,0.7,1.1,0.8s1,0.3,1.7,0.4l0.1,0c0,0,0,0,0,0c0,0,0,0,0,0c0.4,0.1,0.8,0.2,1.1,0.2c0.3,0.1,0.5,0.2,0.7,0.4
		c0.2,0.2,0.3,0.4,0.3,0.8v0c0,0.5-0.2,0.8-0.6,1s-0.9,0.4-1.6,0.4c-0.6,0-1.1-0.1-1.6-0.3c-0.5-0.2-0.9-0.4-1.3-0.8l-0.9,1.4
		c0.3,0.3,0.7,0.5,1.1,0.7c0.4,0.2,0.8,0.3,1.3,0.4s0.7,0.1,0.7,0.1s0.2,0,0.7,0c0.8,0,1.5-0.1,2.1-0.4s1-0.6,1.3-1
		c0.3-0.5,0.5-1,0.5-1.7v0c0-0.7-0.1-1.2-0.4-1.6C235.2,37.1,234.8,36.8,234.4,36.6z"/>
	<path class="st0" d="M237.3,26c-1,0.2-1.8,0-2.7-0.4c-0.2-0.1-0.4-0.2-0.5-0.4c-1.4-1.2-2.5-2.6-3.3-4.3c-0.1-0.1-0.1-0.3-0.2-0.4
		c-0.1,0.1-0.2,0.2-0.3,0.3c0,0,0,0-0.1-0.1c0,0,0.1-0.1,0.1-0.1c0.2-0.1,0.2-0.3,0.1-0.5c-0.5-1-1.1-2-1.6-3c0-0.1-0.1-0.2-0.1-0.2
		c-0.1-0.2-0.1-0.5,0.1-0.7c0.5-0.5,1.1-1.1,1.6-1.6c0.9-0.9,1.3-1.9,1.4-3.1c0.1-0.9,0.3-1.8,0.1-2.6c-0.1-0.6-0.3-1.2-0.6-1.8
		c-0.7-1.5-1.9-2.3-3.5-2.7c-0.7-0.2-1.4-0.4-2.2-0.5c-0.3-0.1-0.7-0.1-1-0.1c-0.4,0-0.8,0-1.1,0c-0.6,0.1-1.1,0.2-1.7,0.2
		c-0.9,0-1.8,0-2.7,0c-1.2,0.1-2.4,0.2-3.6,0.3c-0.5,0-0.5,0-0.5,0.5c0,0.2,0.1,0.3,0.2,0.3c0.4,0.1,0.7,0.1,1.1,0.3
		c0.5,0.2,0.8,0.4,0.9,0.9c0.1,0.7,0.2,1.4,0.3,2.1c0.1,0.5,0.1,1.1,0,1.6c-0.1,0.4-0.1,0.9,0,1.3c0.1,0.3,0.1,0.6,0,0.9
		c0,0.6-0.1,1.2-0.1,1.8c0,0.7,0.1,1.4,0.1,2.1c0,0.6-0.1,1.2,0.3,1.6c-0.1,0.4-0.3,0.7-0.3,1c0,1.9-0.2,3.7-0.3,5.6
		c0,0.5-0.2,0.9-0.5,1.2c-0.4,0.5-1,0.7-1.6,0.8c-0.3,0.1-0.3,0.1-0.2,0.4c0,0.1,0.1,0.2,0.2,0.2c0.2,0.1,0.4,0.1,0.5,0.1
		c0.9,0,1.8,0,2.7-0.1c0.8,0,1.5-0.2,2.3-0.1c0.9,0.1,1.8,0.1,2.7,0.1c0.3,0,0.6-0.1,0.9-0.2c0.2,0,0.2-0.2,0.2-0.4
		c0-0.1-0.1-0.2-0.2-0.2c-0.3-0.1-0.7-0.2-1-0.3c-1.1-0.3-1.4-0.8-1.5-1.7c0-0.2-0.1-0.3-0.1-0.5c0,0,0-0.1,0-0.2
		c-0.1-0.3-0.2-0.7-0.2-1c0-0.8-0.1-1.7-0.1-2.5c0-0.7-0.1-1.4-0.1-2.1c0-0.3,0.1-0.4,0.4-0.4c1,0,2-0.1,3-0.1
		c0.2,0,0.4,0.1,0.5,0.3c0.2,0.5,0.4,1.1,0.7,1.6c0.7,1.3,1.4,2.6,2.1,3.9c0.5,1,1.2,1.8,2,2.6c0.5,0.5,1.1,0.9,1.8,1.1
		c0.4,0.1,0.8,0.2,1.2,0.3c0.7,0,1.4,0,2.1,0c0.2-0.1,0.4-0.2,0.6-0.3c0,0.2,0,0.2,0,0.3c0.2,0,0.3,0,0.5,0c0.1-0.1,0.3-0.1,0.4-0.2
		c0.4-0.1,0.8-0.4,1-0.8c0-0.1,0-0.2,0-0.3C237.7,26.1,237.5,26,237.3,26z M222.3,26.5c0.1,0,0.2,0,0.3,0c0,0.1,0,0.1,0,0.2
		c-0.1,0-0.2,0-0.3,0C222.3,26.6,222.3,26.6,222.3,26.5z M220.7,26.6c-0.2-0.1-0.4-0.3-0.5-0.4c0,0,0,0,0,0c0.1,0,0.3,0,0.4,0
		c0,0,0.1,0.1,0.1,0.1c0,0-0.1,0.1-0.1,0.1C220.6,26.4,220.6,26.5,220.7,26.6C220.7,26.6,220.7,26.6,220.7,26.6z M221,7
		c0-0.1-0.1-0.1,0-0.2c0.1-0.1,0.2-0.2,0.4,0C221.2,6.9,221.1,6.9,221,7z M227.3,14.3c0,0.1-0.1,0.1-0.1,0.2c-1,1.1-2.2,1.9-3.8,1.6
		c-0.5-0.1-1,0-1.5,0c-0.4,0-0.4,0-0.5-0.4c-0.1-0.9-0.1-1.7,0-2.6c0-0.5,0.1-0.9,0.1-1.4c0-0.1,0-0.1,0-0.2c-0.3-0.5-0.1-1-0.1-1.5
		c0-0.4,0.1-0.8,0.1-1.2c0-0.1-0.1-0.2-0.1-0.3c0-0.1,0.1-0.1,0.1-0.2c0-0.4,0.1-0.9,0.1-1.3c0-0.1,0-0.3,0-0.4
		c0-0.3,0.1-0.4,0.4-0.5c0.2-0.1,0.5-0.2,0.7-0.3c0,0,0,0.1-0.1,0.2c0.1,0,0.3,0,0.4,0c0.5,0,0.9,0,1.4,0.1c1.2,0.3,2.1,1.1,2.6,2.2
		c0.3,0.7,0.6,1.3,0.8,2c0.1,0.3,0.1,0.7,0.1,1C228,12.2,227.8,13.3,227.3,14.3z"/>
	<path class="st0" d="M195.7,11.5C195.7,11.5,195.7,11.5,195.7,11.5c0.1-0.4-0.1-0.7-0.2-1c-0.3,0-0.5,0-0.7,0.1c0,0,0-0.1,0-0.1
		c0.2-0.1,0.4-0.1,0.6-0.2c0-0.1-0.1-0.3-0.2-0.4c-1.2-2.4-3-4.2-5.7-5c-0.1,0-0.2,0-0.3,0c-0.1,0-0.1,0-0.2,0
		c0-0.3-0.2-0.2-0.3-0.2c-0.5-0.1-1-0.3-1.6-0.4c-0.3-0.1-0.6-0.2-0.9-0.3c-1.7,0-3.4,0-5,0c-0.1,0-0.3,0-0.4,0.1
		c-0.3,0.1-0.7,0.1-1,0.3c-0.2,0.1-0.3,0.2-0.5,0.1c-0.1,0-0.2,0-0.3-0.1c-0.5-0.2-0.9,0-1.2,0.5c-0.1,0.1-0.2,0.2-0.3,0
		c-0.3-0.3-0.6-0.4-1-0.4c-0.3,0-0.6,0-0.9,0c-0.1,0-0.2,0-0.2,0.2c0,0-0.1,0.1-0.1,0.1c0-0.2-0.2-0.1-0.3-0.2
		c-0.3-0.3-0.6-0.2-1-0.2c-0.1,0-0.3,0-0.4,0.1c-0.1,0.1-0.2,0.3-0.2,0.5c0,0.2,0.2,0.2,0.3,0.2c0.3,0.1,0.6,0.1,0.9,0.2
		c0.3,0.1,0.6,0.2,0.8,0.5c0.3,0.4,0.4,0.8,0.5,1.3c0.1,0.5,0,1,0.3,1.5c0,0.1,0,0.2,0,0.3c0,0.2,0,0.4-0.1,0.5
		c-0.1,0.5-0.2,1,0,1.5c0.1,0.1,0.1,0.2,0.1,0.4c0,1.1-0.1,2.2-0.1,3.3c0,0.1,0.1,0.2,0.1,0.3c0,0.2-0.1,0.4-0.1,0.7
		c0,0.8,0,1.6,0,2.3c0,0.9,0,1.9,0,2.8c0,0.3-0.1,0.6-0.1,0.9c0,0.2-0.1,0.4,0,0.5c0.1,0.3,0.1,0.5,0,0.8c0,0.1,0,0.1,0,0.2
		c0.2,0.6,0,1.1-0.2,1.6c0,0.1,0,0.2-0.1,0.3c-0.2,0.2-0.4,0.4-0.6,0.6c-0.1,0.1-0.2,0.2-0.4,0.2c-0.2,0-0.5,0.1-0.7,0.2
		c-0.2,0.1-0.3,0.3-0.2,0.7c0,0.2,0.2,0.1,0.3,0.1c2.9,0,5.9,0,8.8,0c0.1,0,0.2-0.1,0.3-0.1c0,0,0.1,0,0.1,0c0.1,0,0.2,0.1,0.3,0.1
		c1.1,0,2.2,0,3.2-0.2c0.8-0.1,1.5-0.3,2.2-0.5c0.6-0.2,1.1-0.5,1.7-0.8c1.6-0.9,2.8-2.1,3.6-3.7c0.4-0.9,0.7-1.8,0.9-2.7
		c0.5-1.6,0.7-3.2,0.7-4.9c0-0.3,0-0.7-0.1-1C196,12.5,196,12,195.7,11.5z M176.7,11.2c0.1-0.1,0.2-0.2,0.3-0.2c0,0,0,0.1,0.1,0.1
		C177,11.1,177,11.4,176.7,11.2z M178,14c0.1-0.4,0.3-0.5,0.5-0.3C178.3,13.7,178.2,13.8,178,14z M195.1,14.1
		c-0.9,0.1-1.9,0.2-2.8,0.4c-0.4,0.1-0.5,0.2-0.2,0.5c0.2,0.2,0.2,0.5,0.2,0.8c-0.1,1.1-0.1,2.3-0.3,3.4c-0.3,1.7-1.1,3.2-2.4,4.3
		c-0.8,0.7-1.8,1.1-2.8,1.3c-1.1,0.2-2.1,0.2-3.2,0.1c-1.2-0.1-2.4-0.2-3.6-0.3c-0.3,0-0.6-0.1-0.8-0.3c0.1-0.3,0.4-0.4,0.6-0.5
		c0.5-0.2,0.5-0.2,0.4-0.7c-0.1-0.2-0.1-0.5-0.1-0.8c0-0.6-0.1-1.2-0.1-1.7c0-0.7,0.1-1.3,0.1-2c0-1.7,0-3.4,0-5.1
		c0-0.1-0.1-0.2-0.1-0.3c0-0.1,0.1-0.2,0.1-0.3c0-1.3,0-2.6,0-3.9c0-0.8,0.1-1.5,0.2-2.3c0-0.1,0.1-0.2,0.2-0.2
		c0.6-0.1,1.3-0.3,1.9-0.3c0.4,0,0.7,0,1.1,0c0.3,0,0.7,0,1,0c0.7,0.1,1.5,0.3,2.2,0.5c1.6,0.4,2.8,1.4,3.6,2.8
		c0.4,0.6,0.7,1.2,1,1.8c0.3,0.5,0.5,1.1,0.7,1.6c0.1,0.2,0.2,0.5,0.2,0.8c0,0.2,0.1,0.3,0.3,0.3c0.9,0,1.7,0.1,2.6,0.1
		c0.1,0,0.1,0,0.2,0C195.3,14,195.2,14,195.1,14.1z"/>
	<path class="st0" d="M150.8,27.1c0.4-0.4,0.8-0.8,1-1.4c0.2-0.6,0.4-1.2,0.6-1.8c0-0.1,0.1-0.2,0.1-0.4c0.1-0.8,0.1-1.6,0.2-2.3
		c0-0.1-0.1-0.2-0.1-0.2c-0.2,0-0.4-0.1-0.5,0.1c-0.3-0.2-0.5-0.1-0.6,0.3c-0.1,0.4-0.3,0.7-0.4,1.1c-0.1,0.1-0.2,0.3-0.3,0.4
		c0.1,0,0.2,0,0.3,0c0,0.1-0.1,0.1-0.1,0.1c-0.4,0.1-0.7,0.4-0.9,0.7c-0.8,0.8-1.7,1.3-2.9,1.4c-0.2,0-0.4,0.1-0.5,0.1
		c-0.1,0-0.2-0.1-0.3-0.1c-0.6,0-1.2,0-1.8,0c-1.3,0-2.4-0.6-3.3-1.5c-0.2-0.2-0.3-0.4-0.3-0.7c0-0.4,0-0.7,0.1-1.1
		c0.2-0.9,0.2-1.8,0.1-2.8c-0.1-0.7-0.2-1.3,0.2-2c0.2-0.3,0.5-0.5,0.8-0.6c0.2-0.1,0.5,0,0.7,0c1.1,0.1,2.2,0.2,3.3,0.2
		c0.8,0,1.7,0,2.4,0.5c0.1,0.1,0.3,0.1,0.4,0.2c0,0,0,0.1,0.1,0.2c0.2,0.3,0.5,0.7,0.7,1c0.1,0.1,0.3,0.1,0.5,0.1
		c0.1,0,0.2-0.1,0.3-0.2c0.1-0.3,0.1-0.7,0.1-1c0.1-1,0.1-2,0.2-3c0-0.6,0.1-1.1,0.1-1.7c0-0.3-0.2-0.4-0.4-0.4
		c-0.2-0.1-0.3,0-0.4,0.2c-0.1,0.3-0.3,0.6-0.5,0.9c-0.1,0.2-0.2,0.4-0.4,0.5c-0.4,0.2-0.8,0.3-1.2,0.5c-0.2,0.1-0.5,0-0.7,0
		c-0.8,0-1.6,0-2.5,0c-1,0-2,0-3,0c-0.3,0-0.5-0.1-0.6-0.4c0-0.1-0.1-0.2-0.1-0.3c-0.1,0-0.2,0-0.4,0c0.3-0.2,0.4-0.5,0.4-0.8
		c0-0.5,0-1,0.1-1.5c0-0.2,0-0.4,0-0.6c0.4-1.2,0.3-2.3-0.1-3.4c-0.1-0.4,0-0.6,0.4-0.6c0.9,0,1.9,0,2.8,0c0.8,0,1.6,0,2.4,0
		c0.4,0,0.8,0,1.2,0c0.3,0,0.6,0.1,0.9,0.2c0.4,0.1,0.8,0.3,1,0.7c0.2,0.3,0.3,0.6,0.4,1c0.2,0.5,0.3,1,0.5,1.4
		c0.5-0.2,0.5-0.2,0.6-0.6c0.1-0.8,0.2-1.6,0.2-2.3c0-0.1,0-0.2,0-0.3c-0.1,0.1-0.2,0.1-0.3,0.2c0,0,0,0,0-0.1
		c0.1-0.1,0.2-0.1,0.3-0.1c0.1-0.6,0.2-1.1,0.3-1.7c0.1-0.4-0.1-0.6-0.5-0.7c-0.2,0-0.4,0-0.6,0c-0.8,0-1.7-0.1-2.5-0.1
		c-1.4,0-2.7,0.2-4.1,0.2c-0.1,0-0.2,0.1-0.2,0.1c-0.2-0.2-1-0.2-1.2-0.1c-0.2-0.1-0.3-0.1-0.4-0.2c-0.2,0-0.5-0.1-0.7-0.1
		c-0.9,0-1.9,0-2.8,0c-0.3,0-0.6,0-0.9,0c-0.7,0.2-1.4,0.2-2.2,0.2c-0.5,0-0.7,0.1-0.9,0.6c0.3,0.1,0.7,0.3,1,0.4
		c0.6,0.3,1,0.7,1.1,1.4c0.1,0.5,0.1,1.1,0.1,1.6c0,0.6,0,1.2,0.4,1.8c0.2,0.2,0.2,0.5,0.1,0.7c-0.1,0.3-0.2,0.6-0.2,1
		c-0.1,0.3,0,0.6,0.2,0.9c0.1,0.1,0.1,0.2,0.1,0.3c0,0.4-0.1,0.8,0,1.1c0.1,0.4,0.1,0.9,0,1.3c-0.3,1.3-0.3,2.6-0.3,4
		c0,0.1,0.1,0.2,0.1,0.2c-0.1,0.4,0,0.8-0.1,1.2c0.1,0.1,0.2,0.1,0.3,0.1c-0.2,0.1-0.3,0.3-0.3,0.5c0,0.8,0,1.5,0,2.3
		c0,0.8-0.3,1.3-1,1.8c-0.5,0.3-1,0.7-1.5,1c0,0,0,0,0,0.1c0.1,0.1,0.3,0.2,0.4,0.2c0.8,0,1.6,0,2.4,0c0.1,0,0.2,0,0.4,0
		c0.7,0.1,1.4,0.2,2.1,0.2c1.8,0.1,3.6,0.1,5.5,0.1c1.6,0,3.3,0,4.9,0C150.6,27.2,150.8,27.1,150.8,27.1z M150.3,13c0,0,0.1,0,0.1,0
		c0,0,0,0.1,0,0.1c-0.1,0.1-0.2,0.3-0.4,0.1C150.1,13.1,150.2,13.1,150.3,13z M138.6,19.5c-0.1,0-0.3,0-0.4,0c0,0,0-0.1,0-0.1
		c0.1-0.1,0.2-0.2,0.3-0.2c0.1,0,0.2,0.1,0.3,0.2C138.6,19.5,138.6,19.5,138.6,19.5z M138.7,16.2c0.1-0.1,0.2-0.2,0.3-0.4
		C139.1,16,139,16.1,138.7,16.2z M140.4,24.5c0.1-0.3,0.2-0.4,0.5-0.3C140.7,24.3,140.5,24.4,140.4,24.5z"/>
	<path class="st0" d="M214.2,21c-0.4-0.2-0.7,0.2-1,0.3c0,0,0,0.1,0,0.1c-0.1,0.6-0.5,1.1-0.8,1.6c0,0.1-0.1,0.1-0.1,0.2
		c0,0.2-0.1,0.3-0.3,0.4c-0.1,0-0.1,0.1-0.2,0.1c-0.6,0.6-1.4,1.1-2.2,1.3c0,0.2-0.1,0.3-0.3,0.2c0.1-0.1,0.1-0.1,0.1-0.1
		c-0.8,0-1.6,0-2.5,0c-0.4,0-0.4,0-0.6,0.4c0-0.1-0.1-0.2-0.1-0.4c-0.2,0-0.5,0-0.7,0c-1-0.2-1.8-0.7-2.6-1.4
		c-0.2-0.2-0.3-0.5-0.3-0.8c0-0.3,0-0.7,0.1-1c0.1-0.6,0.2-1.1,0.2-1.7c0-0.4-0.1-0.8-0.1-1.2c-0.1-0.6-0.1-1.2,0.2-1.8
		c0.2-0.3,0.4-0.6,0.8-0.6c0.3,0,0.6,0,0.8,0c0.4,0,0.8,0.1,1.1,0.1c0.9,0,1.9,0,2.8,0c1.1,0,1.9,0.5,2.5,1.3
		c0.1,0.2,0.3,0.4,0.4,0.6c0.1,0.2,0.3,0.1,0.5,0.1c0.1,0,0.2-0.2,0.2-0.3c0.1-0.7,0.2-1.4,0.2-2.2c0.1-0.8,0.1-1.6,0.1-2.5
		c0-0.3,0-0.6,0.1-0.9c0-0.2-0.1-0.4-0.4-0.5c-0.2-0.1-0.4,0-0.5,0.2c-0.1,0.3-0.3,0.6-0.5,0.9c-0.1,0.3-0.3,0.5-0.6,0.6
		c-0.4,0.2-0.8,0.3-1.3,0.3c-2,0-4,0-6,0c-0.4,0-0.6-0.2-0.6-0.6c0-0.1,0-0.2,0-0.3c0-0.8,0.1-1.7,0.1-2.5c0,0,0-0.1,0-0.1
		c0.2-0.6,0.2-1.1,0.2-1.7c0-0.6-0.1-1.2-0.3-1.7c-0.1-0.4,0-0.6,0.4-0.7c0.9,0,1.9,0,2.8,0c0.8,0,1.5,0,2.3,0c0.5,0,1-0.1,1.5,0.1
		c0.1,0,0.3,0.1,0.4,0.1c0.7,0.1,1.1,0.5,1.4,1.2c0.1,0.3,0.2,0.7,0.3,1c0.1,0.3,0.2,0.6,0.4,1c0,0,0,0,0.1,0c0-0.1,0-0.1,0-0.2
		c0.3,0.1,0.4,0,0.5-0.3c0.1-0.8,0.1-1.5,0.2-2.3c0.1-0.8,0.1-1.6,0.4-2.3c0.1-0.3-0.1-0.6-0.5-0.6c-1,0-2-0.1-3-0.1
		c-0.1,0-0.2,0-0.3,0c-0.2,0.2-0.3,0.2-0.4,0c0,0-0.1,0-0.1,0c-0.3,0-0.5,0-0.8,0.1c-0.2,0-0.4,0.1-0.6,0.1c-0.3,0-0.6,0-0.9,0
		c-0.6,0-1.2,0.1-1.8,0c-1.4-0.1-2.8-0.2-4.1-0.2c-0.4,0-0.9,0-1.3,0c-0.7,0.2-1.5,0.2-2.2,0.2c-0.5,0-0.7,0.1-0.8,0.6
		c0.3,0.1,0.6,0.3,1,0.4c0.6,0.3,1,0.7,1.1,1.4c0.1,0.4,0.1,0.8,0.1,1.1c0,0.8-0.1,1.7,0.5,2.4c0.1,0.1,0.1,0.3,0.1,0.4
		c-0.1,0.4-0.2,0.8-0.3,1.1c-0.1,0.3,0,0.6,0.2,0.9c0,0,0.1,0.1,0.1,0.1c-0.1,0.2,0.1,0.3,0.3,0.4c-0.3,0.1-0.4,0.3-0.3,0.6
		c0,0.2,0.1,0.4,0.1,0.6c0,0.2,0,0.3,0,0.5c-0.1,0.9-0.3,1.8-0.3,2.7c-0.1,1.9,0,3.7,0,5.6c0,0.2,0.1,0.5,0.1,0.7
		c-0.1,0.4-0.1,0.8-0.4,1c-0.3,0.2-0.5,0.4-0.8,0.6c-0.4,0.3-0.9,0.6-1.4,0.9c0.2,0.1,0.3,0.2,0.3,0.2c0.7,0,1.3,0.1,1.9-0.1
		c0.2,0,0.3,0.1,0.4,0.1c0.2,0,0.3,0,0.5,0c0.8,0.1,1.7,0.1,2.5,0.2c1.1,0,2.1,0,3.2,0c0.4,0,0.7,0,1.1,0c0.1-0.4,0.2-0.4,0.6-0.3
		c-0.1,0.1-0.2,0.1-0.4,0.3c0.2,0,0.3,0,0.4,0c1.6,0,3.2,0,4.8,0c0.1,0,0.2,0,0.4-0.1c0.1,0.2,0.3,0.1,0.4,0
		c0.3-0.4,0.7-0.7,0.9-1.1c0.1-0.2,0.1-0.5,0.2-0.7c0.1-0.3,0.2-0.6,0.3-0.8c0.1-0.4,0.3-0.7,0.4-1.1c0.1-0.7,0.2-1.5,0.2-2.2
		C214.3,21.1,214.2,21,214.2,21z M206.1,14.8c0.3,0.3,0.3,0.3,0,0.5C205.9,15,205.9,15,206.1,14.8z M204.4,6.1c0,0,0,0.1,0,0.2
		c-0.1,0-0.3-0.1-0.5-0.1C204.1,6,204.3,6,204.4,6.1z M200.5,16.5c0-0.1,0-0.2,0-0.3c0,0,0.1,0,0.1-0.1c0.1,0.1,0.2,0.1,0.3,0.2
		C200.7,16.4,200.6,16.5,200.5,16.5z M208.5,26.4c0.1-0.1,0.2-0.2,0.3-0.4c0.1,0.1,0.1,0.1,0.2,0.2
		C208.8,26.3,208.7,26.5,208.5,26.4z"/>
	<path class="st0" d="M169.6,27.2c0.2,0,0.4-0.1,0.7-0.1c0.3,0.2,0.7,0.1,1,0.1c0,0,0.1-0.1,0.1-0.1c0.2-0.5,0.5-0.9,0.7-1.4
		c0.4-1.2,0.8-2.4,1.1-3.6c0-0.2,0.1-0.3,0.1-0.5c-0.3-0.1-0.6-0.2-0.9-0.2c-0.2,0-0.5,0.1-0.7,0.2c-0.5,0.4-0.7,1-0.9,1.6
		c0.1,0,0.2,0.1,0.2,0.1c-0.2,0.1-0.3,0-0.4,0.2c-0.2,0.6-0.7,1-1.3,1.2c-0.4,0.1-0.8,0.3-1.1,0.5c-0.1,0-0.1,0-0.2,0
		c-0.3,0-0.6,0-0.8,0.2c-0.1,0.1-0.2,0.1-0.3,0c0,0-0.1-0.1-0.1-0.1c-0.5,0.1-0.9,0.1-1.4,0.2c-0.2,0-0.3,0.3-0.4,0.4
		c-0.1,0.1-0.1,0.2-0.1,0.3c-0.5-0.3,0-0.5,0-0.7c-0.1,0-0.1,0-0.2-0.1c-0.4-0.1-0.9-0.1-1.4-0.2c-0.2-0.1-0.5-0.1-0.8-0.1
		c-0.4-0.1-0.6-0.2-0.7-0.6c-0.1-0.5-0.3-1-0.5-1.4c-0.1-0.4-0.3-0.8-0.3-1.3c0-1.5,0-2.9,0-4.4c0-0.3,0-0.6,0.1-0.9
		c0.2-1.1,0.2-2.1-0.1-3.2c0-0.1,0-0.3,0-0.4c0-0.4,0.1-0.7,0.1-1.1c-0.1,0-0.2,0-0.3,0c-0.1,0-0.1-0.1-0.2-0.1
		c-0.1-0.1-0.1-0.3-0.1-0.4c0.1,0,0.3,0,0.5-0.1c-0.1,0.1-0.1,0.2-0.2,0.3c0.1,0.1,0.2,0.2,0.3,0.3c0.1-0.4,0-0.8,0.1-1.2
		c0.1-0.5,0.1-1,0.1-1.4c0.1-0.8,0.3-1.7,0.4-2.5c0.1-0.4,0.3-0.7,0.7-0.9c0.4-0.2,0.8-0.4,1.3-0.5c0.3-0.1,0.7-0.1,0.8-0.5
		c0.2,0.3,0.5,0.1,0.7,0c0.1-0.1,0.3-0.2,0.3-0.4c-0.6,0-1.1,0-1.7,0c-0.2,0-0.5,0-0.6,0.2c0,0-0.1,0-0.1,0.1c0-0.1,0-0.2,0-0.3
		c-0.5,0-0.9,0-1.4,0c-0.2,0-0.4,0-0.5,0.2c0,0.1-0.1,0.1-0.3,0.2c0-0.4-0.3-0.4-0.5-0.4c-0.5,0-1.1,0-1.6,0c-1,0-1.9,0-2.9-0.1
		c-0.4,0-0.7,0-1.1,0c-0.3,0-0.5,0.3-0.5,0.6c0.8,0,1.4,0.3,2,0.8c0.3,0.2,0.4,0.4,0.5,0.8c0.1,0.8,0.3,1.7,0.4,2.5
		c0,0.2-0.1,0.3-0.1,0.5c0,0.1-0.1,0.1-0.1,0.2c0.1,1.3,0.1,2.6,0.2,3.8c0,2.5,0.2,5-0.2,7.5c0,0.2-0.1,0.3,0,0.5
		c0.1,0.1-0.1,0.3-0.1,0.5c0,0.5,0,1,0,1.5c0,0.5-0.1,0.9-0.4,1.3c-0.5,0.6-1.2,0.9-2.1,1c-0.5,0.1-0.6,0.2-0.7,0.7
		c0.6,0.1,1.1,0.3,1.7,0.3c0.9,0.1,1.7,0,2.6,0c2.1,0,4.2,0,6.2,0C166,27.2,167.8,27.2,169.6,27.2z M157.8,26.5
		c0.1-0.4,0.2-0.4,0.5-0.3C158.1,26.3,158,26.4,157.8,26.5z M159.3,26.7c-0.1,0-0.1-0.1-0.1-0.2c0-0.1,0.1-0.1,0.1-0.2
		c0,0.1,0.1,0.1,0.2,0.3C159.4,26.7,159.3,26.7,159.3,26.7z"/>
	<path class="st0" d="M129.4,14.3c-0.4-0.9-0.8-1.9-1.3-2.8c-0.1-0.2-0.2-0.3-0.3-0.4c-0.1-0.2-0.2-0.1-0.3-0.1
		c0.2-0.2,0.1-0.4-0.1-0.5c-0.5-0.7-1-1.4-1.5-2.1c-0.9-1.1-1.8-2-2.9-2.9c-0.9-0.7-1.8-1.2-2.7-1.9c-1.2-0.8-2.5-1.3-3.8-1.8
		c-1.5-0.5-3.1-0.9-4.7-1c-0.1,0-0.2,0.1-0.3,0.1c-0.2,0.2-0.5,0.4-0.7,0.6c-0.1,0.1-0.2,0-0.3,0c0-0.1,0-0.2,0-0.2
		c0.1,0,0.2,0,0.4,0c0-0.1,0.1-0.3,0.2-0.4c-0.2-0.1-0.3-0.1-0.5-0.1c-0.7,0-1.3,0-2,0c-0.9,0.1-1.8,0.2-2.7,0.4
		c-1.1,0.2-2.2,0.5-3.4,0.9c-0.3,0.1-0.6,0.3-0.8,0.5c-0.1,0-0.2,0.1-0.2,0.1c-0.2,0.1-0.5,0.1-0.7,0.2c-0.4,0.2-0.8,0.4-1.2,0.6
		c-2.2,1.2-4.1,2.8-5.8,4.7c-0.4,0.5-0.9,1-1.2,1.6c-0.4,0.5-0.7,1.1-1.1,1.7c-0.4,0.5-0.6,1.2-0.9,1.7c-0.3,0.6-0.5,1.2-0.7,1.8
		c-0.7,1.9-1.1,3.9-1.2,5.9c-0.1,2.6,0.2,5.2,1,7.7c0.3,0.8,0.6,1.6,0.9,2.4c0.1,0.2,0.2,0.3,0.3,0.4c0.1,0.1,0.1,0.3,0.1,0.4
		c0.2,0.3,0.4,0.6,0.5,1c0.2,0.3,0.4,0.5,0.5,0.8c0.2,0.4,0.5,0.8,0.8,1.2c0.1,0.2,0.3,0.3,0.4,0.5c0.2-0.1,0.4-0.3,0.5-0.4
		c0.1,0.1,0.1,0.2,0.2,0.3c-0.1,0.2-0.3,0.3-0.5,0.5c0.8,0.7,1.5,1.5,2.3,2.2c1.2,1.1,2.6,2,4,2.8c1.2,0.7,2.5,1.2,3.9,1.6
		c1.3,0.4,2.7,0.6,4.1,0.8c0.2,0,0.4,0.1,0.7,0.1c0.8,0,1.5,0,2.3,0c0.4,0,0.8-0.1,1.2-0.1c2.2-0.3,4.4-0.8,6.4-1.8
		c0.6-0.3,1.2-0.6,1.8-0.9c0.5-0.3,1-0.6,1.5-1c0.1-0.1,0.2-0.2,0.3-0.3c0,0,0.1-0.1,0.1-0.1c0.7-0.1,1.1-0.7,1.6-1.1
		c3.5-3.1,5.8-7,6.7-11.6c0.1-0.4,0.1-0.8,0.1-1.1c0-0.3,0.2-0.6,0.2-0.9c0-0.4,0.1-0.8,0.1-1.1c0-0.8,0-1.6,0-2.3
		c-0.1-0.6-0.1-1.2-0.2-1.8C130.4,17.3,130,15.8,129.4,14.3z M125.2,11.2c0.2-0.1,0.4-0.2,0.5-0.4C125.6,11,125.4,11.1,125.2,11.2
		C125.2,11.2,125.2,11.2,125.2,11.2z M128.5,21.7c0,2.4-0.4,4.7-1.3,6.9c-0.6,1.5-1.4,2.9-2.3,4.2c-0.1,0.2-0.3,0.4-0.5,0.6
		c-1.6,2-3.4,3.5-5,4.4c-2.1,1.3-4.3,2.1-6.7,2.5c-0.2,0-0.4,0.1-0.6,0.1c-0.3,0-0.5,0.1-0.7,0.3c-0.1,0.1-0.3,0-0.3,0
		c0-0.3-0.2-0.2-0.4-0.2c-1.2,0-2.5,0-3.7-0.1c-1.7-0.2-3.4-0.6-4.9-1.4c-0.5-0.3-0.9-0.2-1.2,0.2c0,0-0.1,0.1-0.1,0.1
		c0,0,0,0-0.2,0c0.2-0.3,0.3-0.5,0.5-0.8c-0.4-0.2-0.9-0.4-1.3-0.6c-0.1,0-0.1-0.2-0.2-0.3c-0.7-0.5-1.4-1-2.1-1.5
		c-0.1-0.1-0.2,0-0.3,0c-0.1,0-0.3,0.1-0.5,0.2c0.1-0.3,0.2-0.4,0.3-0.5c-0.8-0.9-1.5-1.7-2.3-2.5c-0.9-1.1-1.6-2.3-2.2-3.6
		c-0.1-0.1-0.1-0.3-0.2-0.1c0-0.1-0.1-0.2-0.1-0.3c0-0.2,0-0.3,0-0.5c-1-2.6-1.5-5.2-1.3-8c0.1-2.3,0.6-4.6,1.6-6.7
		c1.6-3.6,4.2-6.4,7.5-8.5c2.1-1.3,4.4-2.1,6.8-2.4c4.9-0.7,9.4,0.3,13.5,3.1c1.7,1.2,3.2,2.6,4.4,4.2c0.1,0.2,0.3,0.3,0.4,0.5
		c0,0,0,0,0,0c0,0,0,0,0,0c0.3,0.5,0.6,0.9,0.8,1.4c1.1,1.9,1.9,4,2.2,6.2c0.1,0.7,0.2,1.4,0.3,2c0,0.1,0.1,0.1,0.1,0.2
		C128.6,21.2,128.5,21.5,128.5,21.7z"/>
	<path class="st0" d="M86.4,19.2c0-0.4-0.1-0.7-0.2-1.2c-0.2,0.2-0.3,0.3-0.5,0.5c0,0-0.1,0-0.2,0c0,0,0.1-0.1,0.1-0.1
		c0.2-0.2,0.6-0.4,0.5-0.8c-0.3-1.2-0.6-2.3-1-3.5c0,0-0.1,0-0.1,0c-0.2,0.2-0.4,0.3-0.7,0.5c0-0.5,0.4-0.7,0.6-0.9
		c-0.7-1.7-1.6-3.2-2.7-4.7c-1.8-2.4-4.1-4.3-6.8-5.8c-0.6-0.3-1.3-0.6-2-0.9c-0.1-0.1-0.3,0-0.5-0.1C72.7,2.2,72.6,2,72.4,2
		c-1.7-0.5-3.4-1-5.2-1.1c-0.2,0-0.4,0-0.5,0.1c-0.2,0.1-0.3,0-0.3-0.2c-0.4,0-0.9,0-1.3,0c-0.2,0-0.3,0-0.5,0c-0.1,0-0.3,0-0.4,0
		C64,0.8,63.8,1,63.5,1c-0.4,0-0.8-0.1-1.2,0c-0.7,0.1-1.5,0.1-2.2,0.6c0,0-0.1,0-0.2,0c-0.1,0-0.3,0-0.4,0
		c-0.3,0.1-0.6,0.2-0.9,0.3c-1.7,0.5-3.3,1.4-4.8,2.4c-0.8,0.5-1.5,1.2-2.2,1.8c-0.9,0.7-1.6,1.5-2.4,2.3c-0.1,0.2-0.3,0.3-0.4,0.5
		c-0.1,0.5-0.6,0.7-0.8,1.2c-0.2,0.4-0.6,0.8-0.9,1.3c-0.1,0.1,0,0.3-0.1,0.5c0,0.1-0.1,0.2-0.1,0.2c-0.1,0.2-0.3,0.3-0.4,0.5
		c-0.9,1.8-1.5,3.7-1.9,5.7c-0.2,1-0.3,1.9-0.3,2.9c-0.1,1.3,0.1,2.6,0.2,3.9c0.2,1.3,0.6,2.6,0.9,3.9c0.2-0.1,0.4-0.2,0.6-0.3
		c0,0.1,0,0.2-0.1,0.2c-0.4,0.4-0.3,0.8-0.1,1.2c0,0.1,0.1,0.1,0.1,0.2c0.5,0.9,0.9,1.9,1.5,2.8c0.2,0.4,0.5,0.8,0.8,1.2
		c0.3,0.4,0.6,0.8,0.9,1.2c0.3,0.4,0.6,0.7,1,1.1c0.3,0.3,0.7,0.6,1,0.9c0.3,0.3,0.6,0.6,0.9,0.8c1.2,1,2.6,1.9,4.1,2.6
		c1,0.5,2.1,0.9,3.2,1.2c1.1,0.3,2.3,0.6,3.5,0.8c0.5,0.1,1,0.1,1.5,0.2c0.8,0,1.6,0,2.4,0c0.2,0,0.5-0.1,0.7-0.1
		c2.1-0.2,4.2-0.7,6.1-1.5c0.9-0.4,1.7-0.7,2.5-1.3c0.4-0.3,0.9-0.5,1.3-0.8c2.8-1.9,5-4.4,6.7-7.4c1.3-2.3,2.1-4.8,2.4-7.5
		c0-0.2-0.1-0.4-0.2-0.6c0.1-0.2,0.3-0.5,0.3-0.8C86.5,21.8,86.4,20.5,86.4,19.2z M76.2,37.6c0.1-0.1,0.2-0.3,0.3-0.4c0,0,0,0,0,0
		C76.3,37.4,76.2,37.5,76.2,37.6z M84,25.2c-0.1,0.4-0.2,0.7-0.3,1.1c-0.3,1.5-0.9,2.8-1.6,4.2c-0.2,0.5-0.5,0.9-0.7,1.4
		c-0.1,0.1-0.2,0.2-0.3,0.3c0.1,0,0.2,0.1,0.3,0.1c-0.1,0.1-0.2,0.2-0.3,0.3c-0.2,0.2-0.4,0.3-0.6,0.5c-0.9,1.2-1.9,2.3-3.1,3.2
		c-0.3,0.2-0.5,0.4-0.8,0.6c-0.1,0.1-0.1,0.2-0.2,0.2c-0.4,0.2-0.8,0.4-1.2,0.7c-2.2,1.4-4.6,2.2-7.2,2.6c-0.2,0-0.3,0.1-0.5,0.1
		c-0.7-0.1-1.2,0.3-1.5,0.8c0,0.1-0.1,0.1-0.2,0.2c0,0-0.1,0-0.1-0.1c0.2-0.2,0.3-0.5,0.6-0.8c-0.2,0-0.3,0-0.4,0
		c-2.2,0.1-4.3-0.3-6.4-1c-2-0.6-3.8-1.6-5.4-2.9c-1.3-1-2.5-2.1-3.5-3.5c-0.7-0.9-1.3-2-1.9-2.9c-0.1-0.2-0.3-0.4-0.5-0.7
		c-0.1-0.3-0.2-0.6-0.3-0.9c-0.3-1.2-0.8-2.3-1-3.5c-0.4-1.8-0.4-3.7-0.2-5.6c0.1-0.5,0-0.9,0.1-1.4c0-0.3,0.2-0.5,0.3-0.8
		c0.3-1.3,1.1-3.4,1.9-4.9c1.3-2.3,3-4.2,5.1-5.8c1.7-1.3,3.5-2.2,5.4-2.9c0.3-0.1,0.6-0.2,0.9-0.4c0.1,0,0.3,0,0.4,0
		c1.8-0.5,3.7-0.6,5.6-0.6c1.3,0.1,2.6,0.3,3.9,0.6c2.5,0.7,4.8,1.8,6.8,3.4c0.4,0.3,0.9,0.6,1.2,1c0.5,0.5,0.9,1,1.3,1.5
		c0.9,0.9,1.5,2,2.2,3.1c0,0.1,0.1,0.1,0.1,0.1c0.2,0.5,0.5,1.1,0.7,1.6c0.6,1.4,1,2.8,1.3,4.2c0.4,2.1,0.3,4.2,0,6.3
		C84,25.1,84,25.2,84,25.2z M85.5,21.9c-0.2,0.2-0.4,0.2-0.7-0.1c0.2-0.2,0.4-0.3,0.6-0.5C85.6,21.5,85.6,21.7,85.5,21.9z"/>
	<path class="st0" d="M42.1,20.4c-0.3,0.2-0.6,0.4-0.9,0.6c0-0.2,0-0.3,0.1-0.3c0.2-0.2,0.4-0.4,0.6-0.6c0.2-0.2,0.3-0.3,0.2-0.6
		c-0.2-1.1-0.3-2.3-0.7-3.4c-0.4-1-0.6-2-1.1-3c-1.1-2.6-2.8-4.8-4.8-6.7c-0.5-0.5-1.1-1-1.6-1.4c-0.2,0.2-0.4,0.3-0.6,0.4
		c0,0,0-0.1-0.1-0.1c0.1-0.2,0.2-0.3,0.3-0.5c-0.7-0.5-1.4-0.9-2.1-1.3c-1.1-0.6-2.2-1.1-3.4-1.5c-1.3-0.5-2.7-0.8-4.1-1
		c-0.6-0.1-1.2-0.1-1.8-0.2c-0.8,0-1.6,0-2.3,0c-0.4,0-0.8,0.1-1.2,0.1c-2.6,0.3-5,1-7.3,2.2c-0.3,0.2-0.6,0.2-0.8,0.4
		C9.9,4.1,9,4.5,8.3,5.1C7.6,5.7,6.9,6.3,6.2,6.9C5.6,7.6,4.9,8.3,4.4,9c-0.8,1-1.5,2-2,3.2c-0.3,0.6-0.6,1.1-0.8,1.8
		c-0.2,0.4-0.4,0.8-0.5,1.3c-0.1,0.5-0.3,1-0.4,1.4c-0.1,0.5-0.2,1-0.3,1.5c-0.1,0.8-0.2,1.6-0.3,2.5c0,0.1,0,0.2-0.1,0.3
		c0,0.5,0,0.9,0,1.4c0.1-0.1,0.3-0.2,0.4-0.2c0,0,0,0.1,0.1,0.1c-0.1,0.1,0.1,0.4-0.3,0.3c0,0-0.2,0.2-0.1,0.3
		c0.1,1,0.2,1.9,0.3,2.9c0,0.2,0.2,0.3,0.3,0.5c-0.3,0.2-0.1,0.5-0.1,0.8c0.5,1.8,1.1,3.5,2.1,5.1c0.2,0.3,0.3,0.7,0.6,1
		c0.3-0.3,0.5-0.5,0.7-0.7c0,0,0.1,0,0.1,0.1c0,0.1,0,0.2-0.1,0.3c-0.5,0.6-0.4,0.9,0.1,1.5c0.2,0,0.4,0,0.6,0
		c-0.1,0.2-0.2,0.3-0.3,0.4c1,1.4,2.2,2.5,3.4,3.6c2.1,1.7,4.4,2.9,6.9,3.7c1.6,0.5,3.2,0.8,4.9,0.9c0.1,0,0.2,0,0.3,0.1
		c0.8,0,1.6,0,2.4,0c0.1,0,0.2,0,0.2-0.1c0.9-0.1,1.8-0.2,2.7-0.4c0.6-0.1,1.2-0.3,1.9-0.5c0.6-0.1,1.2-0.2,1.6-0.7c0,0,0.1,0,0.1,0
		c0.7,0,1.2-0.3,1.6-0.7c0.1-0.1,0.2-0.3,0.4-0.4c0.1,0.3,0.2,0.3,0.4,0.2c1-0.6,2-1.3,2.9-1.9c0.1-0.1,0.3-0.2,0.3-0.3
		c0.1-0.2,0.1-0.4,0.2-0.7c0.2,0.3,0.3,0.3,0.5,0.1c0.6-0.6,1.2-1.2,1.8-1.8c1-1.1,1.9-2.4,2.6-3.7c0.1-0.2,0.3-0.4,0.2-0.7
		c0,0,0.1-0.1,0.1-0.2c0.1-0.1,0.3-0.2,0.3-0.4c0.3-0.9,0.7-1.8,1-2.7c0.5-1.3,0.7-2.8,0.9-4.2c-0.2,0.1-0.3,0.2-0.5,0.3
		c0-0.1,0-0.3,0-0.4c0.1-0.2,0.4-0.5,0.4-0.7c0.1-0.8,0-1.6,0-2.4C42.2,20.6,42.2,20.5,42.1,20.4z M40,19.9
		c-0.1,0.1-0.1,0.2-0.1,0.3c0.1,1.5,0.1,2.9-0.1,4.4c-0.2,1.3-0.5,2.6-1,3.9c-0.4,1.2-1,2.2-1.6,3.3c-0.6,1-1.3,1.8-2,2.7
		c-0.6,0.6-1.2,1.2-1.8,1.8c-0.3,0.3-0.6,0.5-1,0.7c-1.5,1.1-3.1,2-4.9,2.6c-0.2,0.1-0.4,0.3-0.7,0.4c-0.2,0.1-0.4,0-0.7,0.1
		c-0.5,0.1-1.1,0.3-1.6,0.4c-1.3,0.3-2.7,0.3-4,0.4c-0.1,0-0.2,0.1-0.4,0.2c-0.1,0-0.3,0-0.5,0c-0.1,0-0.2-0.2-0.3-0.2
		c-0.3-0.1-0.7-0.1-1-0.1c-0.1,0-0.2,0.1-0.3,0.1c-0.1-0.1-0.2-0.1-0.2-0.2c-1.5-0.3-3-0.7-4.3-1.3c-0.2,0.2-0.4,0.3-0.7,0.5
		c0,0-0.1,0-0.2,0c0-0.1,0-0.2,0.1-0.2c0.1-0.1,0.3-0.3,0.4-0.4c-5.6-2.8-9.1-7.1-10.5-13.1c0,0-0.1,0.1-0.1,0.1
		c0,0-0.1,0.1-0.2,0.1c0-0.1,0-0.2,0.1-0.3c0.2-0.2,0.3-0.4,0.2-0.6c-0.1-0.2-0.2-0.5-0.2-0.7c0.2-0.2,0.1-0.6-0.3-0.7
		c0-0.1,0.1-0.1,0.1-0.2c-0.1,0-0.2,0.1-0.3,0.1c0-0.1,0-0.1,0-0.1c0.4-0.2,0.4-0.6,0.4-1c0-0.4,0-0.8,0-1.1c-0.1-1,0.2-2,0.4-3
		c0.2-1,0.5-2,0.8-3c0-0.2,0.1-0.3,0.1-0.5c0.1-0.3,0.3-0.6,0.5-0.9c0.3-0.7,0.6-1.4,1-2c0.4-0.6,0.9-1.2,1.4-1.8
		c1.6-2,3.6-3.6,5.9-4.8c1.4-0.7,2.9-1.3,4.4-1.6c2-0.5,4-0.6,6-0.4c1.8,0.2,3.6,0.6,5.3,1.3c1.7,0.7,3.2,1.6,4.6,2.7
		c0.3,0.3,0.6,0.5,1,0.9c0-0.4,0.1-0.5,0.5-0.5c0,0,0,0.1,0,0.1c-0.4,0.5-0.3,0.5,0.1,1c0.6,0.7,1.2,1.4,1.9,2.1
		c0.1,0.1,0.1,0.1,0.2,0.2c0.2-0.2,0.4-0.4,0.6-0.5c0.2,0.2,0.1,0.4-0.1,0.5c-0.3,0.2-0.3,0.4-0.1,0.7c0.3,0.5,0.7,0.9,0.9,1.4
		c0.3,0.5,0.5,1.1,0.7,1.7c0.1,0.1,0.1,0.3,0.2,0.5c0.1-0.1,0.2-0.1,0.3-0.2c0.1,0,0.3,0,0.4-0.1c0,0.2,0.1,0.3,0,0.5
		c-0.1,0.2-0.2,0.3-0.3,0.5c-0.3-0.1,0.1-0.5-0.3-0.6c0.4,1.5,0.7,2.9,1,4.3c0.1,0,0.2,0.1,0.3,0.1C40.1,19.7,40,19.8,40,19.9z"/>
	<path class="st0" d="M123.2,15.4c0-0.1-0.2-0.2-0.3-0.1c-0.2,0.1-0.5,0.2-0.7,0.4c0-0.1,0-0.2,0.1-0.2c0-0.1,0.1-0.1,0.2-0.1
		c0.2-0.2,0.3-0.3,0.5-0.5c-0.2-0.4-0.4-0.9-0.6-1.4c-0.1-0.2-0.2-0.3-0.4-0.2c-1.5,0.3-2.8,0.9-4,1.7c-1.2,0.8-2.2,1.9-2.8,3.2
		c0,0.1-0.2,0.2-0.2,0.2c-0.6,0-1.1-0.1-1.7-0.1c0-0.5-0.1-1-0.1-1.5c0-0.2,0-0.3,0.3-0.4c1-0.4,1.8-1.1,2.5-1.9
		c1.2-1.4,2-3.1,2.4-4.9c0.1-0.3,0-0.4-0.2-0.5c-0.5-0.2-0.9-0.3-1.4-0.5C116.2,8.2,116,8,115.7,8c-1.9-0.5-3.8-0.4-5.6,0.3
		c-0.2,0.1-0.3,0-0.5,0c-0.8-0.2-1.6-0.4-2.4-0.6c-0.1,0-0.3,0.1-0.4,0.2c-0.3,0.2-0.5,0.7-1.1,0.5c0.3-0.3,0.5-0.5,0.8-0.7
		c-0.1,0-0.1,0-0.2,0c-1.8-0.1-3.4,0.4-4.9,1.2c-0.1,0-0.2,0.3-0.1,0.4c0.2,0.8,0.5,1.6,0.8,2.4c0.1,0.2,0.2,0.5,0.4,0.5
		c0.1,0.2,0.1,0.4,0.2,0.6c0.4,0.6,0.8,1.1,1.2,1.6c0.7,0.8,1.5,1.3,2.4,1.8c0.2,0.1,0.2,0.2,0.2,0.4c-0.1,0.4-0.1,0.8-0.1,1.2
		c0,0.3-0.2,0.4-0.4,0.4c-0.5,0-1,0-1.5,0c-0.2-0.7-0.7-1.4-1.2-2c-1.5-1.7-3.4-2.6-5.5-3.1c-0.5-0.1-0.6-0.1-0.8,0.4
		c-0.3,0.6-0.5,1.3-0.7,2c-0.5,1.6-0.4,3.2,0.1,4.8c0.2,0.7,0.5,1.3,0,2c-0.1,0.1-0.1,0.3-0.1,0.5c-0.3,1.1-0.4,2.3-0.2,3.5
		c0.1,1.4,0.6,2.6,1.3,3.8c2.9-0.3,6.7-2.9,7-4.9c-0.1,0-0.2,0-0.3,0c0.2-0.3,0.3-0.5,0.5-0.8c0.1-0.1,0.2-0.1,0.3-0.2
		c0,0.1,0.1,0.2,0.1,0.3c0,0.1-0.1,0.3-0.1,0.4c0.4,0.1,0.7,0.1,1-0.3c0,0.5,0.3,0.5,0.6,0.5c0,0.6,0.1,1.2,0.1,1.7
		c0,0.1-0.1,0.2-0.2,0.2c-0.4,0.3-0.9,0.5-1.3,0.8c-0.6,0.5-1.2,1-1.6,1.6c-0.5,0.6-0.8,1.3-1.1,1.9c-0.3,0.8-0.6,1.7-0.8,2.5
		c0,0.1,0,0.3,0.1,0.4c0.4,0.2,0.9,0.4,1.3,0.6c0.2,0.1,0.4,0,0.5,0.2c0,0,0.1,0,0.2,0.1c1.3,0.4,2.6,0.6,4,0.3
		c0.7-0.2,1.4-0.3,2-0.5c0.2,0,0.4-0.1,0.5,0c1.3,0.5,2.7,0.7,4.1,0.6c0.1,0,0.2-0.1,0.3-0.1c0.2-0.1,0.4-0.2,0.5-0.4
		c0,0,0,0.1,0.1,0.1c-0.1,0.1-0.3,0.2-0.4,0.3c1.3-0.1,2.4-0.5,3.5-1c0.2-0.1,0.3-0.2,0.2-0.4c-0.1-0.4-0.2-0.9-0.4-1.4
		c-0.1-0.2-0.2-0.3-0.4-0.1c0.2-0.5,0.2-0.6-0.1-1.1c-0.2-0.3-0.3-0.6-0.5-0.9c-0.9-1.5-2.1-2.7-3.7-3.4c-0.2-0.1-0.2-0.2-0.2-0.4
		c0.1-0.5,0.1-1,0.2-1.6c0.5,0,1-0.1,1.6-0.1c0.1,0,0.2,0.1,0.3,0.2c0.2,0.4,0.4,0.8,0.7,1.2c0.9,1.3,2.2,2.2,3.6,2.9
		c0.9,0.4,1.9,0.7,2.9,0.9c0.6-1.1,1-2.2,1.2-3.4c0.2-1.2,0.1-2.4-0.1-3.5c-0.2,0-0.4,0.1-0.5,0.1c-0.4-0.1,0.3-0.3,0-0.4
		c-0.1,0-0.2,0.1-0.3,0.1c0,0-0.1-0.1-0.1-0.1c0.1-0.1,0.2-0.3,0.3-0.4c0.2-0.1,0.2-0.2,0.1-0.4c-0.1-0.1-0.1-0.3-0.1-0.5
		c0.1-0.5,0.3-0.9,0.4-1.4C123.7,18.5,123.6,17,123.2,15.4z M98.3,15.3c1.6,0.5,2.9,1.4,3.9,2.8c0.1-0.1,0.3-0.2,0.4-0.3
		c0.1,0.4-0.2,0.5-0.3,0.7c-0.1,0.1-0.3,0.2-0.5,0.1c-0.3-0.1-0.6,0.1-1,0.1C99.9,19,99,19.3,98,19.6C97.6,18.6,97.7,16.4,98.3,15.3
		z M100.9,26.3c-0.7,0.6-1.4,0.9-2.2,1.3c-0.1,0.1-0.3,0.2-0.4,0.4c-0.2-0.6-0.3-1-0.4-1.5c-0.2,0.2-0.4,0.4-0.6,0.6
		c0,0-0.1,0-0.1,0c0-0.1,0-0.1,0-0.2c0.2-0.2,0.4-0.4,0.6-0.6c0.1-0.1,0.2-0.2,0.2-0.2c-0.1-0.8-0.1-1.6,0-2.4c0-0.1,0-0.1,0-0.2
		c-0.1,0-0.2,0.1-0.3,0.1c-0.1-0.3,0.6-1,1.1-1c-0.2,0.3-0.3,0.5-0.5,0.7c1.3,0.6,2.7,0.9,4.2,1.1C101.9,25.2,101.5,25.8,100.9,26.3
		z M103,22.7c-1.5-0.2-2.9-0.5-4.3-1.1c1-0.8,2.2-0.7,3.3-1.1c0.1-0.2,0.1-0.3,0.2-0.5c0,0,0.1,0,0.1,0.1c0,0.1-0.1,0.2-0.1,0.4
		c0.2,0,0.4,0,0.6-0.1c0.2,0,0.3,0,0.3,0.2C103.5,21.3,103.3,22,103,22.7z M106.1,23c-0.4,0-0.7-0.1-1.1-0.1
		c0.4-0.9,0.6-1.9,0.1-2.8c0.4,0,0.7-0.1,1.1-0.1C106.1,21,106.1,22,106.1,23z M108.5,14.6c0.2-0.9,0.4-1.9,0.6-2.8
		c0.1-0.4,0.3-0.8,0.5-1.2c0,0,0.1,0,0.1,0c0.1,0.2,0.2,0.4,0.3,0.6c0,0.1,0.2,0.1,0.2,0.2c0.1,0.1,0.1,0.2,0.1,0.2
		c-0.1,0.4-0.1,0.5,0.3,0.7c0,0,0.1,0,0.1,0.1c-0.3,0.2-0.2,0.4-0.2,0.6c0.1,0.6,0.3,1.3,0.4,1.9c-0.3,0.1-0.6,0.2-0.9,0.3
		c-0.1,0-0.2,0-0.3,0c-0.3-0.1-0.7-0.2-1-0.3C108.5,14.9,108.5,14.8,108.5,14.6z M108.3,16.8c0.9,0.3,1.9,0.7,2.8,0
		c0.1,0.4,0.1,0.7,0.1,0.9c0,0.1-0.1,0.1-0.2,0.2c-0.1,0-0.3,0-0.4,0c-0.2,0-0.3,0.1-0.5,0.2c-0.4-0.3-1.2-0.3-1.5,0.1
		c-0.1-0.1-0.3-0.2-0.4-0.4C108.2,17.6,108.2,17.2,108.3,16.8z M103.4,10.1c1.4-0.5,2.9-0.6,4.4-0.3c-0.7,1.4-1,2.8-1.2,4.4
		C105,13.2,104.1,11.8,103.4,10.1z M103.5,33c0.6-1.7,1.5-3.1,3.1-4.1c0.3,1.5,0.5,3,1.3,4.3C106.4,33.6,105,33.5,103.5,33z
		 M109.7,32.4c0,0-0.1,0-0.1,0c-0.1-0.3-0.2-0.6-0.4-0.9c-0.4-1-0.5-2.1-0.7-3.1c0-0.2,0-0.3,0.2-0.3c0.7-0.2,1.3-0.3,2,0
		c0.1,0,0.2,0.1,0.2,0.2C110.6,29.8,110.4,31.2,109.7,32.4z M111.1,26.3c-1-0.5-1.9-0.4-2.9,0c0-0.5-0.1-0.8-0.1-1.3c1,0,2,0,3,0
		C111.2,25.5,111.1,25.8,111.1,26.3z M110.9,23.2c-0.7,0-1.5,0-2.2,0c-0.3,0-0.6-0.1-0.9-0.1c0.1-0.2,0.1-0.2,0.1-0.3c0,0,0,0,0.1,0
		c0,0.1,0,0.1,0,0.2c0,0,0.1,0,0.1,0c0-1,0-2,0-3c1.1,0,2.2,0,3.3,0c0,0.5,0,1,0,1.4c0,0.4,0,0.9,0,1.3
		C111.3,23,111.2,23.2,110.9,23.2z M114.7,30.5c0.3,0.4,0.3,0.4,0.7,0.1c0.1-0.1,0.2-0.1,0.3-0.2c0,0,0,0.1,0.1,0.1
		c-0.2,0.2-0.4,0.4-0.6,0.6c0.3,0.6,0.6,1.3,0.9,1.9c-1.1,0.5-3.1,0.7-4.5,0.3c0.2-0.7,0.5-1.4,0.7-2.2c0.2-0.7,0.3-1.5,0.5-2.2
		C113.5,29.3,114.1,29.8,114.7,30.5z M112.8,14.2c-0.2-0.7-0.3-1.5-0.5-2.2c-0.2-0.7-0.4-1.4-0.7-2.2c1.4-0.4,2.9-0.3,4.3,0.2
		C115.6,11.7,114.1,13.6,112.8,14.2z M114.4,22.9c-0.4,0-0.8,0.1-1.1,0.1c0-1,0-2,0-3c0.4,0,0.7,0.1,1.2,0.1
		C114,21,113.8,22,114.4,22.9z M117.3,18c0.5-0.7,1.1-1.3,1.8-1.8c0.5-0.3,1-0.6,1.5-1c0,0,0,0,0,0.1c0.2-0.1,0.3-0.1,0.5-0.1
		c0.5,0.9,0.7,3,0.3,4.4c0,0-0.1,0-0.1,0c-1-0.5-2-0.7-3.1-1c-0.2,0-0.4,0-0.5,0.2c-0.1,0.1-0.3,0.2-0.4,0.3c0,0-0.1-0.1-0.1-0.1
		c0.1-0.1,0.3-0.3,0.5-0.4c-0.2,0-0.4-0.1-0.6-0.1C117.1,18.3,117.2,18.2,117.3,18z M116.2,22.4c-0.3-0.7,0-1.3,0.2-2
		c0.6,0.1,1.2,0.2,1.8,0.3c0,0,0-0.1,0-0.1c-0.1,0-0.1,0-0.3,0c0-0.1,0.1-0.3,0.1-0.3c0.2,0,0.3,0,0.6,0.1c-0.1,0.2-0.1,0.3-0.2,0.4
		c0.5,0.1,1.1,0.3,1.6,0.4c0.1-0.3-0.5-0.5-0.2-0.9c0.1-0.1,0.2-0.2,0.3-0.3c0,0,0.1,0,0.1,0.1c0,0.4-0.1,0.7-0.1,1.2
		c0.1,0.1,0.3,0.2,0.5,0.3c-0.5,0.3-0.9,0.5-1.4,0.7c0.1-0.1,0-0.1-0.2-0.1c-0.6,0-0.9,0.4-1.2,0.8c-0.2,0.2-0.4,0.5-0.6,0.7
		c-0.1-0.2-0.1-0.3,0.2-0.6c0.2-0.2,0.3-0.4,0.4-0.6c0,0,0-0.1-0.1-0.1c-0.3,0.1-0.5,0.1-0.8,0.2c-0.1,0-0.2,0.1-0.4,0.1
		C116.4,22.7,116.3,22.6,116.2,22.4z M121.1,27.8c-1.8-0.6-3.2-1.5-4.1-3.1c0.3-0.1,0.6-0.4,0.9-0.4c1,0.1,1.9-0.4,2.9-0.7
		c0.2-0.1,0.4-0.2,0.6-0.2C121.7,24.9,121.7,26.3,121.1,27.8z M122,14c-0.3,0.2-0.5,0.4-0.8,0.6c0,0-0.1,0-0.1,0c0,0,0-0.1,0-0.1
		c0.2-0.2,0.4-0.5,0.7-0.7c0.1-0.1,0.2-0.1,0.3-0.1c0,0,0.1,0.1,0.1,0.1C122.1,13.9,122,13.9,122,14z"/>
	<path class="st0" d="M75,20.7c-1.4-0.3-2.7-0.1-3.8,0.7c-0.4,0.3-0.6,0.6-1,0.9c-0.6,0.6-0.8,1.3-1.1,2c-0.2,0.7,0,1.5,0.2,2.2
		c0.2,0.7,0.6,1.2,1.2,1.6c0.2,0.1,0.3,0.3,0.5,0.1c0.1,0.1,0.1,0.3,0.2,0.3c0.2,0.1,0.4,0.2,0.6,0.2c1.5,0.5,3.2-0.4,3.6-1.9
		c0-0.1,0-0.3-0.1-0.5c0.1-0.2,0.2-0.4,0-0.7c-0.2-0.5-0.5-0.8-1-1c-0.5-0.2-1.1,0-1.4,0.4c-0.2,0.3-0.1,0.6,0.3,0.7
		c0.2,0.1,0.3,0.2,0.5,0.3c0,0,0.1,0,0.1,0c0.1,0,0.1,0,0.2,0c0,0,0,0.1,0,0.2c-0.2,0.2-0.4,0.4-0.7,0.6c-0.7,0.5-1.6,0.1-1.9-0.8
		c-0.5-1.2,0.1-2.5,1.2-3.1c1.3-0.7,3-0.3,3.8,0.7c0.5,0.7,1,1.5,1.1,2.4c0,0.5,0.1,1-0.1,1.5c-0.3,0.9-0.7,1.7-1.5,2.3
		c-0.8,0.6-1.6,1-2.6,1.1c-1.2,0.1-2.4-0.2-3.5-0.8c-0.1-0.1-0.2-0.1-0.3-0.1c-0.1,0-0.2,0.1-0.4,0.2c0.1-0.2,0.2-0.4,0.2-0.5
		c-1.3-1-2-2.4-2.2-4c-0.2,0.1-0.4,0.2-0.5,0.3c0,0,0-0.1-0.1-0.1c0.1-0.1,0.2-0.3,0.3-0.4c0.3-0.1,0.2-0.2,0.2-0.4
		c0-1,0.2-2,0.6-2.9c0,0,0-0.1,0-0.1c-0.1-0.1-0.1-0.1-0.2-0.2c0.1-0.1,0.1-0.1,0.2-0.2c0,0.1,0,0.2,0,0.2c0.4-0.5,0.8-1,1.2-1.5
		c0.5-0.5,1-0.9,1.5-1.4c0.9-0.9,1.6-2,1.9-3.2c0.2-0.5,0.2-1.1,0.3-1.7c0-0.7,0-1.3,0-2c0-0.2,0-0.6-0.3-0.7c0,0,0-0.1,0-0.2
		c0-0.1,0.1-0.1,0-0.2c-0.1-0.2-0.1-0.4-0.2-0.6c-0.8-1.7-2-2.9-3.7-3.7c-0.4-0.2-0.4-0.2-0.7,0.2c0,0.1-0.1,0.1-0.2,0.2
		c-0.3-0.3,0.1-0.4,0.1-0.6c-3-1.3-7.2,0.8-7.9,3.9c0.1,0,0.1,0,0.2,0c-0.4,0.1-0.5,0.5-0.5,0.8c0,0.3-0.1,0.6,0,1
		c0.1,2.3,1.4,4.2,3.6,4.9c0.4,0.1,0.9,0.5,1.2-0.2c0.1,0.2,0.1,0.3,0.2,0.4c1.1,0,1.9-0.4,2.7-1c1.9-1.4,1.8-4.7-0.2-5.8
		c-1.2-0.6-2.6-0.3-3.3,0.8c-0.3,0.5-0.3,0.9-0.1,1.4c0.2,0.5,0.6,0.6,1,0.3c0.1,0.1,0.2,0.2,0.2,0.3c0.3-0.2,0.3-0.2,0.2-0.6
		c-0.1-0.2-0.1-0.5,0.2-0.6c0.2-0.1,0.5,0,0.7,0c0.6,0.2,0.7,0.7,0.6,1.5c0.1,0.1,0.2,0.1,0.3,0.2c-0.2,0.2-0.4,0.3-0.6,0.4
		c-0.6,0.8-1.4,1.1-2.3,0.9c-1.5-0.3-2.3-1.4-2.4-2.9c0-0.8,0.1-1.6,0.6-2.3c0.9-1.3,2.6-2.2,4.4-1.7c1.4,0.3,2.6,1,3.3,2.4
		c0.2,0.3,0.3,0.6,0.7,0.4c0,0,0,0,0.1,0.1c-0.2,0.1-0.3,0.3-0.4,0.4c0.1,0.4,0.2,0.8,0.2,1.2c0.2,3-1.4,5.1-4.1,6.1
		c-0.4,0.1-0.8,0.3-1.1,0.6c0,0-0.1,0-0.2,0c0-0.1,0-0.2,0-0.2c-0.7-0.2-1.3,0-1.8,0.4c0,0,0-0.1,0-0.1c0.1-0.1,0.2-0.3,0.3-0.5
		c-0.7,0-1.4-0.3-2-0.5c-1-0.4-2-0.5-3.1-0.5c-0.8,0-1.6,0.2-2.4,0.5c-2.9,1.2-4.6,3.3-4.8,6.4c-0.1,1,0.1,2,0.5,3
		c0.8,1.8,2,3.3,4,3.7c0.6,0.1,1.3,0.2,1.9,0.2c0.6,0,1.2-0.2,1.8-0.3c0.8-0.3,1.4-0.8,2.1-1.4c1.7-1.5,1.8-3.9,1.1-5.5
		c-0.4-1-1.1-1.6-2.1-2.1c-0.3-0.1-0.6-0.3-0.8-0.1c-0.3-0.1-0.6-0.4-0.9-0.4c-0.8,0-1.7,0.1-2.2,0.8c-0.3,0.4-0.9,0.7-1.1,1.2
		c-0.5,1-0.1,2.7,0.8,3.4c0.2,0.1,0.5,0.3,0.8-0.1c0,0.4,0.2,0.4,0.4,0.3c0.3,0,0.6-0.1,0.9-0.2c0.2-0.1,0.4-0.3,0.5-0.5
		c0.2-0.3,0.1-1-0.1-1.2c-0.3-0.3-0.6,0-0.9,0.1c-0.3,0.2-0.6,0-0.7-0.4c-0.1-0.4,0-0.8,0.3-1.1c0.8-0.7,1.7-0.7,2.5,0
		c1,0.9,1.3,2.4,0.5,3.6c-0.2,0.3-0.3,0.7-0.7,0.9c-0.6,0.3-1.2,0.6-1.7,0.9c-0.1,0-0.2-0.1-0.3-0.1c-0.6-0.1-1.3-0.1-1.9-0.2
		c-0.1,0-0.1-0.1-0.2-0.1c-0.2-0.2-0.4-0.4-0.6-0.5c-0.2,0.1-0.3,0.1-0.4,0.1c0.2-0.3,0-0.4-0.2-0.6c-0.3-0.4-0.7-0.9-0.9-1.4
		c-0.5-1.4-0.3-2.7,0.2-4.1c0.1-0.3,0.3-0.5,0.5-0.8c0.6-0.8,1.4-1.4,2.3-1.7c0.3-0.1,0.6-0.3,0.8-0.5c0.1-0.1,0.2-0.1,0.3-0.2
		c0,0.1,0.1,0.2,0.1,0.3c0.2,0,0.5-0.1,0.7-0.1c0-0.1,0-0.2,0-0.3c0.1,0,0.1,0.1,0.1,0.1c0.1-0.1,0.2-0.3,0.3-0.4c0,0,0,0,0.1,0
		c0,0.2-0.1,0.3-0.1,0.6c0.4,0,0.7-0.1,1-0.1c0.1,0,0.2,0,0.3,0.1c0.1,0,0.1,0.2,0.2,0.2c0.9,0.2,1.7,0.6,2.4,1.2
		c0.7,0.7,1.4,1.4,1.8,2.4c0.1,0.4,0.4,0.7,0.5,1.1c0.2,0.6,0.2,1.3,0.3,1.9c0.4,1.4,1.2,2.6,2.2,3.6c0.7,0.7,1.4,1.1,2.3,1.5
		c0.4,0.1,0.8,0.4,1.2,0.1c-0.2,0.3,0,0.3,0.2,0.3c1.5,0.4,2.9,0.1,4.2-0.4c1.5-0.5,2.6-1.6,3.3-3c0-0.1,0-0.2,0-0.2
		c-0.1-0.2,0-0.3,0-0.4c0.2-0.4,0.6-0.6,0.7-1.1c0.1-0.8,0.2-1.5,0.1-2.2C79.1,23.2,77.5,21.2,75,20.7z M69.8,25.4
		c0.1-0.1,0.2-0.2,0.3-0.3c0.1,0.2,0.2,0.3,0.2,0.4C70.3,25.5,70.1,25.8,69.8,25.4z"/>
	<path class="st0" d="M34.8,25.1c0-0.2-0.1-0.5-0.2-0.6c-0.7-0.8-1.4-1.6-2.2-2.3c-0.1-0.2-0.2-0.3-0.2-0.5c0-0.6-0.1-1.3-0.2-1.9
		c-0.1-0.5-0.3-1.1-0.4-1.6c-0.2-0.5-0.2-0.5-0.7-0.3c0,0,0-0.1,0-0.1c0,0,0-0.1,0-0.1c0.4-0.3,0.2-0.7,0-1
		c-0.2-0.2-0.3-0.5-0.5-0.8c-0.1-0.1-0.1-0.4-0.4-0.3c0,0-0.1-0.1-0.1-0.2c0-0.1,0-0.3-0.1-0.3c-1-1.2-2.2-2.2-3.6-2.9
		c-0.3-0.1-0.5-0.3-0.5-0.6c0-0.2-0.1-0.5-0.2-0.7c-0.4-1-0.9-2-1.4-3c-0.2-0.5-0.6-1-0.9-1.4c-0.7-0.9-1.3-1.8-2-2.7
		c-0.4,0.4-0.8,0.6-1.1,1c-1,1.1-1.8,2.5-2.5,3.8c-0.6,1.1-1,2.3-1.3,3.5c0,0.1-0.2,0.3-0.3,0.3c-0.7,0.6-1.6,1.1-2.2,1.7
		c-2.1,2-3.2,4.5-3.3,7.4c0,0.2-0.1,0.4-0.3,0.5c-1,0.8-1.8,1.7-2.6,2.7c-0.2,0.2-0.3,0.4-0.4,0.7c-0.1,0.2-0.3,0.4-0.4,0.6
		c-0.4,0.8-0.9,1.5-1.3,2.3c-0.2,0.5-0.4,1-0.7,1.5c2.9,1.1,5.8,1.5,8.9,1.1c0-0.1-0.1-0.1-0.1-0.2c0,0,0.1,0,0.1,0
		c0.1,0,0.2,0.1,0.2,0.1c0.4,0,0.8-0.3,1.1,0c0.1-0.1,0.3-0.3,0.4-0.4c0,0,0,0,0.1,0c0,0.2-0.1,0.4-0.1,0.6c0.2,0.1,0.5,0.3,0.8,0.5
		c1.3,0.6,2.6,1,4.1,1.2c1.4,0.1,2.7,0,4-0.4c1-0.3,2-0.7,2.8-1.4c0.2-0.2,0.5-0.3,0.8-0.2c0.4,0.1,0.7,0.1,1.1,0.2
		c0.3,0,0.6,0.1,0.8-0.2c0-0.1,0.1-0.1,0.2-0.1c0.1,0.5,0.1,0.5,0.6,0.5c1.1,0,2.2-0.1,3.3-0.2c0.6-0.1,1.3,0,1.8-0.5
		c0,0,0.1,0,0.1,0c0.5,0.2,0.8-0.1,1.2-0.2c-0.2-1.2-1.4-3.8-2.1-4.7C35.1,25.2,34.9,25.2,34.8,25.1z M26.3,15.5c0-0.4,0-0.8,0-1.2
		c0.3,0,0.4,0.6,0.8,0.4c0.1,0.2,0.3,0.4,0.4,0.5c1.5,1.4,2.4,3.1,2.7,5.1c0,0.1,0,0.1,0,0.2c-0.6-0.3-1.2-0.6-1.8-0.8
		c-0.3-0.1-0.6-0.2-0.9-0.3c-0.3-0.1-0.7-0.2-1-0.3c-0.1,0-0.1,0-0.2,0c-0.3,0-0.5,0-0.5-0.4c-0.1,0.1-0.2,0.3-0.3,0.4
		c-0.1,0-0.2-0.1-0.2-0.1c0.1-0.1,0.2-0.2,0.3-0.3c0.4-0.3,0.6-0.7,0.6-1.2C26.2,16.8,26.3,16.2,26.3,15.5z M18.2,10.9
		c0.1-0.1,0.1-0.2,0.2-0.1c0.3,0.1,0.3-0.1,0.4-0.3c0.5-1.4,1.3-2.6,2.2-3.8c0,0,0-0.1,0.1-0.2c1,1.5,1.9,2.9,2.6,4.6
		c-0.3,0-0.5-0.1-0.8-0.1c-0.1,0-0.3,0-0.4,0.1c-0.1,0-0.2,0.1-0.2,0.2c0-0.1,0-0.2-0.1-0.4c-0.5,0-1,0-1.5,0
		c-0.6,0.1-1.2,0.2-1.8,0.3c-0.3,0.1-0.4-0.2-0.6-0.2C18.2,11,18.2,10.9,18.2,10.9z M17.8,15c0-0.5,0.1-0.9,0.1-1.4
		c0-0.1,0.1-0.2,0.2-0.2c0.9-0.2,1.7-0.5,2.6-0.6c0.9-0.1,1.9,0,2.8,0.3c0.2,0.1,0.4,0.2,0.6-0.1c0,0,0.1,0,0.2,0
		c0,1.2,0.1,2.5,0.1,3.7c0,0.3,0.1,0.3,0.3,0.2c0.2-0.1,0.3-0.3,0.5-0.4c0.2-0.2,0.4-0.3,0.7-0.4c0,0.1,0.1,0.2,0.1,0.3
		c0,0.1-0.2,0.1-0.3,0.1c-0.2,0.1-0.5,0.2-0.6,0.4c-0.1,0.2-0.3,0.3-0.5,0.4c-0.3,0.2-0.4,0.3-0.4,0.6c-0.1,0.7-0.1,0.7-0.9,0.7
		c-0.7,0-1.4,0-2.1,0c-0.8,0-1.5,0-2.3,0c-0.5,0-0.6,0-0.7-0.5c-0.1-0.5-0.2-0.9-0.3-1.4c-0.1,0-0.1,0-0.2,0.1
		C18,16.2,17.8,15.6,17.8,15z M23.1,20.9c-0.4,1.1-1.2,2.1-1.9,3.1c-0.8-1-1.4-2-2-3.1C20.5,20.6,21.8,20.6,23.1,20.9z M17.6,16.8
		C17.6,16.8,17.6,16.8,17.6,16.8c-0.1,0-0.2,0-0.2,0C17.5,16.8,17.6,16.8,17.6,16.8z M17.4,16.8C17.4,16.8,17.4,16.8,17.4,16.8
		C17.4,16.8,17.4,16.8,17.4,16.8z M15.9,14.7c0,0.5,0,1,0.1,1.4c0,0.3,0,0.7,0.1,1c0,0.1,0.1,0.2,0.2,0.3c0,0,0.1,0.1,0.1,0.1
		c-0.2,0.4,0.1,0.8,0.1,1.2c0,0.1-0.1,0.2-0.1,0.2c-1.2,0.3-2.4,0.7-3.5,1.3c0,0-0.1,0-0.2,0.1C12.9,18,14,16.2,15.9,14.7z
		 M7.6,28.5c0.9-1.6,1.9-3.1,3.2-4.4c0.4,1.8,1.2,3.3,2.4,4.8C11.3,29.2,9.4,28.9,7.6,28.5z M15.7,28.2c-0.2,0.1-0.4,0.1-0.5-0.1
		c-0.7-0.8-1.4-1.6-1.8-2.5c-0.2,0.1-0.4,0.1-0.6,0.2c-0.1,0-0.1,0.1-0.2,0.1c-0.1,0-0.2,0.1-0.3,0.1c0-0.1,0-0.3,0.1-0.4
		c0.1-0.2,0.3-0.3,0.5-0.5c0.2-0.2,0.2-0.3,0.1-0.5c-0.1-0.5-0.3-1-0.4-1.4c-0.1-0.3,0-0.5,0.3-0.7c0.5-0.3,1-0.7,1.6-0.9
		c0.8-0.3,1.6-0.5,2.4-0.7c0.1,0,0.2,0.1,0.4,0.2c0.1-0.1,0.2-0.2,0.3-0.4c0.1,0.1,0.2,0.1,0.3,0.2c-0.2,0.2-0.3,0.4-0.5,0.6
		c0.7,1.5,1.5,2.8,2.6,4.1c-0.7,0.5-1.3,1.1-2.1,1.5C17.2,27.6,16.4,27.9,15.7,28.2z M23.8,30.3c-0.9,0.2-1.9,0.4-2.8,0.4
		c-1.1,0-2.3-0.3-3.3-0.8c-0.2-0.1-0.4-0.3-0.7,0c0,0-0.1-0.1-0.1-0.1c0.1-0.1,0.2-0.3,0.3-0.4c0,0,0,0.1,0.1,0.1c0.1,0,0.3,0,0.4,0
		c1.3-0.6,2.5-1.5,3.6-2.5c0.7,0.6,1.5,1.1,2.2,1.7c0.2-0.1,0.3-0.3,0.5-0.4c0,0,0.1,0,0.1,0.1c-0.1,0.1-0.1,0.3-0.3,0.5
		c0.5,0.3,1.1,0.5,1.7,0.9C24.8,30,24.3,30.2,23.8,30.3z M27.4,28.2c-0.1,0.1-0.2,0.1-0.3,0.1c-0.9-0.4-1.7-0.7-2.5-1.2
		c-0.7-0.4-1.4-1-2.1-1.5c1.2-1.4,2.2-2.9,2.9-4.6c0.1-0.2,0.2-0.2,0.4-0.2c1.5,0.3,2.9,0.9,4.2,1.8c0.1,0.1,0.2,0.3,0.1,0.4
		C29.9,25.1,28.9,26.8,27.4,28.2z M29.6,28.8c0.4-0.5,0.7-1,1.1-1.5c-0.1-0.1-0.2-0.2-0.3-0.2c0.1-0.1,0.2-0.2,0.3-0.4
		c0.1,0.1,0.1,0.2,0.1,0.2c0.6-0.8,0.8-1.8,1.1-2.7c1.2,1.3,2.2,2.7,2.9,4.3C33.1,29,31.3,29.1,29.6,28.8z"/>
</g>
</svg>
